<svg xmlns="http://www.w3.org/2000/svg" width="116.235" height="21.306" viewBox="0 0 116.235 21.306">
  <g id="getapp-vector-logo" transform="translate(-20.425 -266.425)">
    <path id="Path_7986" data-name="Path 7986" d="M127.22,274.46l-7.846-7.846a.667.667,0,0,0-.93,0l-1.55,1.55,6.3,6.3a.667.667,0,0,1,0,.93h0l-6.49,6.49,1.55,1.55a.667.667,0,0,0,.93,0l8.021-8.021a.673.673,0,0,0,.019-.949" transform="translate(-77.623)" fill="#009c9c"/>
    <path id="Path_7987" data-name="Path 7987" d="M89.342,267.276l-.562-.562a.667.667,0,0,0-.93,0l-1.55,1.55,1.027,1.027,2.015,2.015,2.015-2.015Z" transform="translate(-53.113 -0.081)" fill="#40e3e3"/>
    <path id="Path_7988" data-name="Path 7988" d="M88.442,330.6l-2.015,2.015L85.4,333.642l1.55,1.55a.667.667,0,0,0,.93,0l.562-.562,2.015-2.015Z" transform="translate(-52.387 -51.742)" fill="#40e3e3"/>
    <path id="Path_7989" data-name="Path 7989" d="M104.548,285.969a.667.667,0,0,1,0,.93l-3.448,3.448,2.015,2.015,5.463-5.463a.667.667,0,0,0,0-.93h0l-5.27-5.27-2.034,2.015Z" transform="translate(-65.046 -11.509)" fill="#1abab8"/>
    <path id="Path_7990" data-name="Path 7990" d="M26.7,274.654l5.463-5.463-2.015-2.015-.581-.562a.667.667,0,0,0-.93,0l-8.021,8.04a.667.667,0,0,0,0,.93h0l7.846,7.846a.667.667,0,0,0,.93,0l.581-.562,2.015-2.015-5.27-5.27a.649.649,0,0,1-.019-.93h0" transform="translate(0 0)" fill="#87f0f0"/>
    <path id="Path_7991" data-name="Path 7991" d="M58.178,286.244l2.4-2.4-2.015-2.015L57.538,280.8l-5.424,5.463a.667.667,0,0,0,0,.93h0l5.25,5.25,1.027-1.027,2.015-2.015-2.228-2.228a.666.666,0,0,1,0-.93" transform="translate(-25.397 -11.59)" fill="#40e3e3"/>
    <path id="Path_7992" data-name="Path 7992" d="M83.474,299.832,85.7,302.06l2.4-2.4a.667.667,0,0,0,0-.93h0L85.877,296.5l-2.4,2.4a.707.707,0,0,0,0,.93" transform="translate(-50.694 -24.249)" fill="#17cfcf"/>
    <path id="Path_7993" data-name="Path 7993" d="M203.339,272.852a7.472,7.472,0,0,1,.523-2.6,5.963,5.963,0,0,1,1.356-2.015,6.219,6.219,0,0,1,2.209-1.3A10.844,10.844,0,0,1,213.9,267a6.65,6.65,0,0,1,2.131,1.279,4.3,4.3,0,0,1,1.1,1.53,4.57,4.57,0,0,1,.368,1.337.528.528,0,0,1-.174.465.694.694,0,0,1-.465.174h-1.918a.608.608,0,0,1-.407-.136.7.7,0,0,1-.213-.271c-.039-.058-.116-.194-.252-.407a2.584,2.584,0,0,0-.639-.659,4.509,4.509,0,0,0-2.925-.891,4.128,4.128,0,0,0-2.848.949,3.579,3.579,0,0,0-1.143,2.577c-.039.6-.039,1.24-.039,1.937,0,.678,0,1.337.039,1.937a3.609,3.609,0,0,0,1.143,2.848,4.4,4.4,0,0,0,2.828.891,6.41,6.41,0,0,0,1.608-.194,3.334,3.334,0,0,0,1.259-.62,2.677,2.677,0,0,0,.833-1.124,4.274,4.274,0,0,0,.291-1.7v-.194h-2.887a.561.561,0,0,1-.446-.194.631.631,0,0,1-.194-.446V274.4a.645.645,0,0,1,.639-.639h5.463a.645.645,0,0,1,.639.639V277a7.079,7.079,0,0,1-.446,2.615,5.593,5.593,0,0,1-1.356,2.054,6.352,6.352,0,0,1-2.247,1.356,10.511,10.511,0,0,1-6.277,0,5.977,5.977,0,0,1-2.189-1.3,5.8,5.8,0,0,1-1.337-2.054,8.035,8.035,0,0,1-.5-2.615c0-.291-.019-.639-.039-.988V273.84c0-.368.019-.678.039-.988" transform="translate(-147.446 -0.038)" fill="#424a52"/>
    <path id="Path_7994" data-name="Path 7994" d="M291.185,291.261a3.092,3.092,0,0,0-1.182.194,2.259,2.259,0,0,0-.814.523,2.089,2.089,0,0,0-.5.717,2.008,2.008,0,0,0-.213.736h5.347a4.538,4.538,0,0,0-.174-.736,2.073,2.073,0,0,0-.426-.717,2.112,2.112,0,0,0-.775-.523,3.12,3.12,0,0,0-1.259-.194m-5.793,3.545a7.853,7.853,0,0,1,.407-2.5,6,6,0,0,1,1.162-2.054,5.29,5.29,0,0,1,1.84-1.356,5.978,5.978,0,0,1,2.383-.5,5.644,5.644,0,0,1,2.383.484,5.71,5.71,0,0,1,1.86,1.317,6.111,6.111,0,0,1,1.182,1.918,6.222,6.222,0,0,1,.407,2.305v1.066a.645.645,0,0,1-.639.639h-7.9a2.267,2.267,0,0,0,.213.949,2.025,2.025,0,0,0,.6.678,3.036,3.036,0,0,0,.872.426,3.646,3.646,0,0,0,1.027.136,3.893,3.893,0,0,0,1.24-.155,2.426,2.426,0,0,0,.775-.387,3.182,3.182,0,0,1,.426-.271,1.137,1.137,0,0,1,.446-.078h1.9a.677.677,0,0,1,.465.194.492.492,0,0,1,.174.446,1.975,1.975,0,0,1-.368.852,3.7,3.7,0,0,1-1.027,1.027,6.389,6.389,0,0,1-1.7.852,6.844,6.844,0,0,1-2.325.349,6.289,6.289,0,0,1-2.383-.465,5.135,5.135,0,0,1-1.84-1.3,5.915,5.915,0,0,1-1.162-2.034,6.977,6.977,0,0,1-.407-2.538" transform="translate(-213.633 -17.712)" fill="#424a52"/>
    <path id="Path_7995" data-name="Path 7995" d="M352.608,278.86a1.66,1.66,0,0,0,.387,1.162,1.883,1.883,0,0,0,1.453.446h1.434a.645.645,0,0,1,.639.639v1.569a.645.645,0,0,1-.639.639h-1.763a4.9,4.9,0,0,1-3.41-1.085,4.3,4.3,0,0,1-1.2-3.293v-5.1h-1.569a.561.561,0,0,1-.446-.194.63.63,0,0,1-.194-.446v-1.569a.561.561,0,0,1,.194-.446.631.631,0,0,1,.446-.194h1.569v-3.855a.645.645,0,0,1,.639-.639h1.8a.645.645,0,0,1,.639.639v3.855h3.061a.655.655,0,0,1,.62.639V273.2a.645.645,0,0,1-.639.639h-3.061Z" transform="translate(-263.549 -0.061)" fill="#424a52"/>
    <path id="Path_7996" data-name="Path 7996" d="M410.736,278.091l-2.615-6.742-2.6,6.742Zm-1.317-10.4a.742.742,0,0,1,.562.194,1.875,1.875,0,0,1,.349.6l5.793,14.976a.482.482,0,0,1,.019.155.645.645,0,0,1-.639.639h-1.7a.89.89,0,0,1-.659-.194,1.211,1.211,0,0,1-.252-.387l-1.027-2.635h-7.478l-1.027,2.635a1.337,1.337,0,0,1-.252.387.835.835,0,0,1-.659.194h-1.7a.645.645,0,0,1-.639-.639.378.378,0,0,1,.019-.155l5.793-14.976a1.875,1.875,0,0,1,.349-.6.769.769,0,0,1,.562-.194Z" transform="translate(-306.12 -1.016)" fill="#424a52"/>
    <path id="Path_7997" data-name="Path 7997" d="M498.534,295.546a7.477,7.477,0,0,0,0-1.317,3.1,3.1,0,0,0-.949-2.209,3.162,3.162,0,0,0-3.913,0,2.82,2.82,0,0,0-.911,1.957,4.577,4.577,0,0,0-.039.891c0,.31.019.6.039.891a2.857,2.857,0,0,0,.911,1.937,2.816,2.816,0,0,0,1.957.717,2.973,2.973,0,0,0,1.957-.678,3.089,3.089,0,0,0,.949-2.189m-2.189,5.734a5.962,5.962,0,0,1-1.317-.136A4.938,4.938,0,0,1,494,300.8a4.381,4.381,0,0,1-.736-.484,3.77,3.77,0,0,1-.5-.465v5.037a.645.645,0,0,1-.639.639h-1.782a.645.645,0,0,1-.639-.639V289.366a.645.645,0,0,1,.639-.639h1.8a.645.645,0,0,1,.639.639v.542a2.87,2.87,0,0,1,.5-.465,4.4,4.4,0,0,1,1.782-.814,5.962,5.962,0,0,1,1.317-.136,4.884,4.884,0,0,1,3.778,1.7,5.74,5.74,0,0,1,1.066,1.782,7.087,7.087,0,0,1,.446,2.092c.019.232.019.5.019.833s0,.6-.019.833a6.416,6.416,0,0,1-.446,2.092,5.74,5.74,0,0,1-1.066,1.782,5.122,5.122,0,0,1-1.627,1.24,5.441,5.441,0,0,1-2.189.426" transform="translate(-378.361 -17.792)" fill="#424a52"/>
    <path id="Path_7998" data-name="Path 7998" d="M567.473,295.546a7.488,7.488,0,0,0,0-1.317,3.1,3.1,0,0,0-.949-2.209,3.162,3.162,0,0,0-3.913,0,2.82,2.82,0,0,0-.911,1.957,4.579,4.579,0,0,0-.039.891c0,.31.019.6.039.891a2.858,2.858,0,0,0,.911,1.937,2.816,2.816,0,0,0,1.957.717,2.973,2.973,0,0,0,1.957-.678,3.089,3.089,0,0,0,.949-2.189m-2.209,5.715a5.961,5.961,0,0,1-1.317-.136,4.937,4.937,0,0,1-1.027-.349,3.973,3.973,0,0,1-.736-.465,3.774,3.774,0,0,1-.5-.465v5.037a.663.663,0,0,1-.639.639h-1.8a.645.645,0,0,1-.639-.639V289.366a.645.645,0,0,1,.639-.639h1.8a.645.645,0,0,1,.639.639v.542a3.77,3.77,0,0,1,.5-.465,5.875,5.875,0,0,1,.736-.465,4.938,4.938,0,0,1,1.027-.349,5.961,5.961,0,0,1,1.317-.136,4.885,4.885,0,0,1,3.778,1.7,5.741,5.741,0,0,1,1.066,1.782,7.089,7.089,0,0,1,.446,2.092c.019.232.019.5.019.833s0,.6-.019.833a6.416,6.416,0,0,1-.446,2.092,5.741,5.741,0,0,1-1.066,1.782,5.346,5.346,0,0,1-1.627,1.24,5.177,5.177,0,0,1-2.15.465" transform="translate(-433.913 -17.792)" fill="#424a52"/>
  </g>
</svg>
