<svg enable-background="new 0 0 318 100" height="100" viewBox="0 0 318 100" width="318" xmlns="http://www.w3.org/2000/svg"><path d="m11 41.374 27.036.005 16.439.004v-16.288z" fill="#ff9d28"/><path d="m54.476 25.095v57.5l20.533-65.192z" fill="#68c5ed"/><path d="m54.476 41.382-16.439-.004 16.439 41.217z" fill="#044d80"/><path d="m11 41.374 31.252 10.582-4.216-10.577z" fill="#e54747"/><path d="m110.596 67.459c-.238.238-.636.537-1.191.895-.557.357-1.28.715-2.174 1.072-.893.355-1.985.664-3.275.922s-2.769.387-4.436.387c-3.217 0-5.996-.516-8.338-1.547s-4.277-2.473-5.806-4.318-2.649-4.029-3.364-6.551c-.715-2.52-1.072-5.289-1.072-8.307 0-3.016.387-5.807 1.162-8.367.773-2.561 1.935-4.772 3.482-6.639 1.549-1.866 3.484-3.325 5.807-4.377s5.052-1.578 8.188-1.578c1.549 0 2.948.139 4.199.416 1.25.278 2.342.605 3.275.982.932.378 1.707.774 2.322 1.191s1.082.766 1.399 1.042c.357.318.665.695.923 1.132.258.438.387.913.387 1.429 0 .795-.297 1.589-.893 2.382-.596.795-1.25 1.529-1.965 2.203-.477-.476-1.013-.961-1.608-1.458-.595-.496-1.261-.933-1.995-1.311-.734-.376-1.568-.694-2.501-.952s-1.976-.388-3.126-.388c-2.025 0-3.723.407-5.092 1.221s-2.471 1.876-3.305 3.187-1.43 2.809-1.787 4.496-.535 3.404-.535 5.15c0 1.868.178 3.653.535 5.36s.973 3.217 1.847 4.525c.872 1.311 2.015 2.363 3.424 3.156 1.409.795 3.165 1.191 5.271 1.191 1.11 0 2.133-.139 3.066-.416.932-.277 1.757-.615 2.471-1.014.715-.396 1.34-.812 1.877-1.25.535-.438.982-.812 1.34-1.131.238.277.516.615.833 1.012.319.4.618.818.894 1.25.277.438.516.875.715 1.311.197.438.297.834.297 1.191 0 .516-.1.953-.297 1.309-.2.358-.519.756-.954 1.192zm30.688-4.566c0 3.156.458 5.451 1.378 6.891-.719.277-1.389.479-2.008.598-.619.121-1.268.18-1.946.18-1.438 0-2.526-.279-3.265-.838-.74-.559-1.209-1.357-1.408-2.396-.879.92-2.037 1.697-3.475 2.336s-3.195.959-5.271.959c-1.079 0-2.157-.15-3.235-.447-1.079-.301-2.058-.787-2.937-1.463-.879-.678-1.598-1.582-2.156-2.719-.56-1.135-.838-2.518-.838-4.148 0-2.031.488-3.684 1.467-4.957.979-1.275 2.207-2.279 3.686-3.016 1.477-.736 3.074-1.244 4.792-1.523 1.717-.279 3.295-.457 4.733-.537.479-.039.947-.061 1.407-.061h1.288v-1.09c0-1.535-.41-2.626-1.229-3.271-.818-.646-2.146-.971-3.983-.971-1.718 0-3.245.28-4.583.839-1.339.56-2.646 1.198-3.924 1.917-.561-.678-1.01-1.428-1.348-2.246-.34-.818-.51-1.428-.51-1.827 0-.56.309-1.099.928-1.618.619-.518 1.469-.988 2.547-1.407s2.316-.759 3.715-1.019c1.396-.26 2.875-.39 4.434-.39 2.156 0 3.983.22 5.48.659 1.498.439 2.717 1.119 3.654 2.037.938.919 1.607 2.066 2.008 3.444.398 1.378.599 2.986.599 4.824zm-7.669-6.95h-.838c-.28 0-.561.021-.839.061-.999.08-1.987.199-2.966.359s-1.848.439-2.605.838c-.76.4-1.379.92-1.857 1.559-.479.639-.719 1.457-.719 2.455 0 1.119.318 2.066.958 2.846.639.779 1.717 1.168 3.235 1.168.758 0 1.478-.098 2.156-.299.68-.199 1.278-.459 1.798-.779.519-.318.929-.668 1.228-1.049.3-.379.449-.727.449-1.047zm22.586-11.802c.636-.759 1.632-1.528 2.985-2.307s3.065-1.168 5.136-1.168c1.475 0 2.877.249 4.211.749s2.519 1.309 3.554 2.426c1.035 1.119 1.861 2.597 2.479 4.434.616 1.838.926 4.094.926 6.77 0 3.115-.359 5.682-1.076 7.697-.717 2.018-1.642 3.615-2.775 4.793-1.135 1.18-2.4 2.008-3.793 2.486-1.395.48-2.787.719-4.181.719-1.155 0-2.161-.129-3.016-.389-.856-.26-1.583-.549-2.181-.869-.598-.318-1.055-.637-1.373-.959-.318-.318-.518-.539-.597-.658v14.727h-8.147v-41.087c.199-.039.441-.08.724-.12.242-.039.523-.069.846-.09.321-.02.704-.03 1.146-.03 1.327 0 2.454.221 3.38.659.926.441 1.51 1.179 1.752 2.217zm10.783 11.084c0-1.199-.1-2.316-.298-3.355-.198-1.038-.526-1.936-.983-2.696-.456-.758-1.072-1.348-1.846-1.768-.775-.419-1.719-.629-2.83-.629-1.668 0-2.829.32-3.484.959s-.982 1.338-.982 2.097v12.701c.316.32.882.699 1.696 1.139.815.439 1.757.658 2.83.658 2.025 0 3.515-.797 4.468-2.396.953-1.597 1.429-3.835 1.429-6.71zm14.795 10.304c-.279-.799-.459-1.639-.539-2.518-.08-.877-.119-1.756-.119-2.635v-27.797c.279-.039.578-.079.898-.12.279-.039.578-.068.898-.09.319-.02.639-.029.959-.029.639 0 1.277.06 1.917.18.638.119 1.218.359 1.737.719.519.359.938.85 1.258 1.467.319.62.479 1.43.479 2.427v4.253h8.388v6.052h-8.388v12.775c0 2.787 1.138 4.18 3.415 4.18.559 0 1.088-.09 1.588-.27.498-.18.947-.379 1.348-.6.398-.219.748-.449 1.049-.689.299-.238.509-.418.628-.539.6.881 1.058 1.641 1.378 2.283.319.643.479 1.246.479 1.811 0 .523-.209 1.039-.629 1.543s-1.009.967-1.768 1.391c-.759.422-1.677.766-2.756 1.027-1.078.262-2.257.395-3.534.395-2.477 0-4.404-.48-5.781-1.439-1.377-.962-2.346-2.22-2.905-3.777zm36.512-.779c1.002 0 1.884-.109 2.646-.33.761-.219 1.442-.488 2.044-.809.601-.318 1.122-.668 1.563-1.047.44-.381.841-.729 1.202-1.049.48.598.981 1.367 1.503 2.305.521.939.782 1.709.782 2.307 0 .879-.5 1.678-1.498 2.396-.839.641-2.027 1.189-3.564 1.648-1.539.459-3.346.689-5.422.689-1.879 0-3.725-.24-5.541-.719-1.818-.48-3.437-1.318-4.854-2.518-1.418-1.197-2.566-2.805-3.445-4.822-.879-2.016-1.317-4.562-1.317-7.639 0-2.516.39-4.682 1.167-6.5.779-1.817 1.818-3.325 3.117-4.523 1.297-1.198 2.765-2.076 4.402-2.636 1.637-.559 3.314-.839 5.033-.839 2.236 0 4.133.351 5.69 1.048 1.558.699 2.825 1.639 3.805 2.816.978 1.178 1.687 2.526 2.126 4.044.439 1.519.66 3.115.66 4.792v.838c0 .32-.011.66-.031 1.02-.02.359-.039.709-.059 1.049-.021.34-.051.609-.09.809h-17.674c.16 2.197.842 4.023 2.043 5.482 1.203 1.459 3.107 2.188 5.712 2.188zm2.73-12.162c0-1.917-.372-3.475-1.115-4.672-.743-1.198-2.08-1.798-4.006-1.798-1.648 0-2.963.569-3.947 1.708s-1.477 2.726-1.477 4.762zm21.547-8.296c.24-.356.559-.752.959-1.189.398-.436.889-.832 1.468-1.188.579-.357 1.218-.654 1.917-.893.698-.238 1.447-.356 2.247-.356.479 0 .988.04 1.527.118.539.08 1.038.229 1.497.446s.829.515 1.109.892c.278.376.419.842.419 1.396 0 .871-.22 1.872-.659 3.002-.439 1.131-.879 2.095-1.318 2.894-.68-.559-1.357-.988-2.037-1.288-.679-.3-1.478-.45-2.396-.45-1.238 0-2.275.361-3.114 1.082s-1.259 1.582-1.259 2.583v19.395h-8.146v-29.231c.199-.039.438-.08.719-.12.238-.039.519-.069.838-.09.32-.02.699-.03 1.139-.03 1.277 0 2.386.248 3.324.742s1.527 1.257 1.766 2.285zm23.165 0c.239-.356.559-.752.958-1.189.399-.436.889-.832 1.469-1.188.578-.357 1.217-.654 1.916-.893s1.447-.356 2.247-.356c.479 0 .988.04 1.527.118.539.08 1.038.229 1.498.446.459.218.828.515 1.108.892.279.376.42.842.42 1.396 0 .871-.221 1.872-.66 3.002-.439 1.131-.879 2.095-1.317 2.894-.679-.559-1.358-.988-2.037-1.288s-1.478-.45-2.396-.45c-1.238 0-2.277.361-3.115 1.082-.84.721-1.259 1.582-1.259 2.583v19.395h-8.147v-29.231c.199-.039.439-.08.719-.12.24-.039.52-.069.839-.09.319-.02.698-.03 1.138-.03 1.278 0 2.387.248 3.325.742s1.527 1.257 1.767 2.285zm38.882 18.601c0 3.156.459 5.451 1.377 6.891-.719.277-1.388.479-2.006.598-.62.121-1.27.18-1.947.18-1.438 0-2.527-.279-3.266-.838s-1.209-1.357-1.408-2.396c-.879.92-2.037 1.697-3.475 2.336s-3.195.959-5.271.959c-1.078 0-2.156-.15-3.235-.447-1.078-.301-2.058-.787-2.936-1.463-.879-.678-1.598-1.582-2.157-2.719-.559-1.135-.838-2.518-.838-4.148 0-2.031.488-3.684 1.468-4.957.978-1.275 2.206-2.279 3.685-3.016 1.477-.736 3.074-1.244 4.793-1.523 1.717-.279 3.295-.457 4.732-.537.479-.039.948-.061 1.408-.061h1.287v-1.09c0-1.535-.41-2.626-1.229-3.271-.818-.646-2.146-.971-3.983-.971-1.718 0-3.245.28-4.583.839-1.338.56-2.646 1.198-3.924 1.917-.56-.678-1.01-1.428-1.348-2.246-.34-.818-.51-1.428-.51-1.827 0-.56.309-1.099.929-1.618.619-.518 1.468-.988 2.546-1.407 1.079-.419 2.316-.759 3.715-1.019 1.397-.26 2.875-.39 4.434-.39 2.156 0 3.983.22 5.481.659 1.497.439 2.716 1.119 3.653 2.037.938.919 1.607 2.066 2.008 3.444.398 1.378.6 2.986.6 4.824zm-7.669-6.95h-.839c-.279 0-.56.021-.838.061-.999.08-1.988.199-2.967.359s-1.848.439-2.605.838c-.759.4-1.378.92-1.857 1.559s-.719 1.457-.719 2.455c0 1.119.319 2.066.959 2.846.639.779 1.717 1.168 3.234 1.168.759 0 1.479-.098 2.157-.299.679-.199 1.278-.459 1.798-.779.518-.318.928-.668 1.228-1.049.3-.379.449-.727.449-1.047z" fill="#044d80"/></svg>