<svg width="100%" height="100%" viewBox="0 0 600 274" fill="none" xmlns="http://www.w3.org/2000/svg"><g><path d="M82.6886 128.716C42.8441 128.716 23.0904 143.076 23.0904 168.459V170.442C23.0904 194.494 35.4751 206.183 79.1692 209.021C108.968 211.194 115.494 215.532 115.494 226.724V227.558C115.494 238.771 104.613 242.751 83.1803 242.751C61.256 242.751 49.8688 235.743 49.8688 217.522V216.555H23.0904V217.894C23.0904 252.128 41.8395 266.487 82.6886 266.487C122.027 266.487 142.111 254.63 142.111 226.913V225.743C142.111 198.355 128.553 187.332 87.0369 184.823C56.7391 182.987 49.8759 178.817 49.8759 168.459V167.758C49.8759 158.241 58.7482 152.726 82.0142 152.726C104.782 152.726 115.326 160.239 115.326 175.103V176.441H142.111V175.138C142.111 146.251 123.2 128.716 82.6886 128.716Z" fill="#3C3C3B"></path><path d="M212.542 144.576C187.765 144.576 176.385 157.106 176.385 176.974V145.438H149.6V274H176.385V227.908C176.385 248.449 187.765 260.474 212.542 260.474C244.68 260.474 258.076 242.604 258.076 209.372V195.517C258.076 163.119 244.68 144.576 212.542 144.576ZM231.277 204.698C231.277 230.915 222.236 238.266 203.487 238.266C184.4 238.266 176.371 233.921 176.371 221.734V183.155C176.371 171.129 184.4 166.791 203.487 166.791C222.236 166.791 231.277 174.135 231.277 200.191V204.698Z" fill="#3C3C3B"></path><path d="M318.791 144.576C286.477 144.576 269.407 156.77 269.407 179.314V183.519H296.193V180.681C296.193 172.664 300.878 168.823 317.45 168.823C336.367 168.823 341.221 173.498 341.221 187.857V190.864C310.418 197.213 265.558 193.204 265.558 232.617V234.117C265.558 255.33 279.453 266.515 303.892 266.515C329.336 266.515 341.221 255.302 341.221 238.483V265.702H368V186.498C368 156.426 353.269 144.576 318.791 144.576ZM341.221 233.578C341.221 242.758 332.012 247.103 310.924 247.103C298.033 247.103 292.343 241.588 292.343 232.386V230.718C292.343 216.184 307.095 216.702 341.221 211.677V233.578Z" fill="#3C3C3B"></path><path d="M429.726 144.583C391.554 144.583 375.488 164.787 375.488 199.519V211.544C375.488 246.283 391.554 266.487 429.726 266.487C466.213 266.487 483.958 249.283 483.958 220.234V216.73H457.179V217.901C457.179 235.932 448.307 241.448 429.221 241.448C410.64 241.448 402.267 233.739 402.267 209.211V201.859C402.267 177.331 410.64 169.622 429.221 169.622C448.307 169.622 457.179 175.131 457.179 193.169V194.34H483.958V190.836C483.958 161.78 466.213 144.583 429.726 144.583Z" fill="#3C3C3B"></path><path d="M599.916 189.833C599.916 161.444 582.354 144.576 546.345 144.576C507.849 144.576 491.446 164.787 491.446 199.526V211.376C491.446 246.283 507.512 266.487 547.855 266.487C582.171 266.487 599.916 251.126 599.916 227.579V224.572H573.13V225.406C573.13 239.268 560.416 242.604 547.687 242.604C526.935 242.604 519.398 236.262 518.393 214.572H599.881L599.916 189.833ZM518.899 191.172C521.077 173.974 529.774 168.459 546.015 168.459C564.279 168.459 572.969 173.638 573.13 191.172H518.899Z" fill="#3C3C3B"></path><path d="M102.611 41.9271V38.5913C102.611 10.8675 92.2353 0.0471497 55.4044 0.0471497H0V134.713H26.7855V80.3382H53.2338L77.0056 136.115H104.789L79.1762 77.6681C94.413 72.6573 102.611 60.4634 102.611 41.9271ZM75.8325 42.9083C75.8325 55.1022 70.9713 58.6063 55.4044 58.6063H26.7855V24.7294H55.4044C70.9713 24.7294 75.8325 28.2334 75.8325 40.2592V42.9083Z" fill="#3C3C3B"></path><path d="M163.038 15.0251C124.535 15.0251 108.132 35.2362 108.132 69.975V81.8256C108.132 116.733 124.198 136.937 164.548 136.937C198.864 136.937 216.602 121.575 216.602 98.0282V95.0217H189.83V95.8557C189.83 109.718 177.109 113.053 164.387 113.053C143.629 113.053 136.098 106.711 135.093 85.0213H216.581V60.2829C216.602 31.8934 199.026 15.0251 163.038 15.0251ZM135.585 61.6215C137.763 44.4237 146.467 38.9084 162.701 38.9084C180.965 38.9084 189.655 44.0874 189.823 61.6215H135.585Z" fill="#3C3C3B"></path><path d="M300.695 15.8664L271.571 116.228L242.446 15.8664H215.162L252.99 136.103H289.983L327.818 15.8664H300.695Z" fill="#3C3C3B"></path><path d="M481.844 0H455.058V136.103H481.844V0Z" fill="#3C3C3B"></path><path d="M569.717 15.8664V92.352C569.717 106.711 561.013 111.722 544.779 111.722C526.36 111.722 520.838 105.541 520.838 90.3477V15.8664H494.053V94.5175C494.053 123.58 507.948 136.937 533.729 136.937C558.674 136.937 569.717 123.412 569.717 99.0307V136.103H596.502V15.8664H569.717Z" fill="#3C3C3B"></path><path d="M383.904 14.9198C371.747 14.9198 359.863 18.5161 349.755 25.2541C339.647 31.9921 331.768 41.569 327.116 52.7738C322.464 63.9786 321.247 76.3081 323.618 88.203C325.99 100.098 331.844 111.024 340.441 119.6C349.037 128.176 359.989 134.016 371.913 136.382C383.836 138.748 396.195 137.534 407.426 132.893C418.658 128.251 428.258 120.392 435.012 110.308C441.766 100.224 445.371 88.368 445.371 76.24C445.371 59.9769 438.895 44.3798 427.368 32.8801C415.84 21.3803 400.206 14.9198 383.904 14.9198V14.9198ZM383.904 111.631C376.888 111.631 370.029 109.555 364.195 105.666C358.361 101.777 353.814 96.2502 351.129 89.7834C348.444 83.3166 347.742 76.2008 349.111 69.3357C350.479 62.4706 353.858 56.1646 358.819 51.2151C363.781 46.2657 370.102 42.8951 376.983 41.5295C383.865 40.1639 390.998 40.8648 397.48 43.5434C403.962 46.222 409.503 50.7581 413.401 56.5781C417.299 62.398 419.379 69.2404 419.379 76.24C419.368 85.6228 415.627 94.618 408.977 101.253C402.326 107.887 393.309 111.619 383.904 111.631Z" fill="#3C3C3B"></path></g></svg>