<?xml version="1.0" standalone="no"?>
<!DOCTYPE svg PUBLIC "-//W3C//DTD SVG 20010904//EN"
 "http://www.w3.org/TR/2001/REC-SVG-20010904/DTD/svg10.dtd">
<svg version="1.0" xmlns="http://www.w3.org/2000/svg"
 width="42.000000pt" height="43.000000pt" viewBox="0 0 42.000000 43.000000"
 preserveAspectRatio="xMidYMid meet">

<g transform="translate(0.000000,43.000000) scale(0.100000,-0.100000)"
fill="#000000" stroke="none">
<path d="M85 225 l0 -165 33 0 32 0 0 70 c0 56 3 70 15 70 9 0 15 9 15 25 0
16 -6 25 -15 25 -11 0 -15 12 -15 46 l0 47 50 -6 c28 -3 55 -9 60 -12 15 -9
12 -46 -4 -64 -22 -24 -23 -113 -1 -160 15 -35 23 -41 48 -41 22 0 28 4 23 15
-3 8 6 31 19 51 29 43 34 132 11 188 -24 57 -69 76 -177 76 l-94 0 0 -165z
m222 -52 c-13 -13 -16 -13 -22 7 -5 15 -1 27 12 39 17 17 18 17 21 -7 2 -14
-3 -31 -11 -39z"/>
</g>
</svg>
